<svg width="26" height="26" viewBox="0 0 26 26" fill="none" xmlns="http://www.w3.org/2000/svg">
<g clip-path="url(#clip0_216_113)">
<rect width="26" height="26" rx="5" fill="#353F9A"/>
<g clip-path="url(#clip1_216_113)">
<path d="M8.9375 6.4375H7.6875V10.1875H8.9375V6.4375Z" fill="white"/>
<path d="M8.9375 11.4375H7.6875V12.6875H8.9375V11.4375Z" fill="white"/>
<path d="M20.5 3.625H5.5C5.00287 3.6255 4.52625 3.8232 4.17472 4.17472C3.8232 4.52625 3.6255 5.00287 3.625 5.5V16.125C3.6255 16.6221 3.8232 17.0988 4.17472 17.4503C4.52625 17.8018 5.00287 17.9995 5.5 18H9.80125L8.86375 19.875H7.375C7.20924 19.875 7.05027 19.9408 6.93306 20.0581C6.81585 20.1753 6.75 20.3342 6.75 20.5V22.375H8V21.125H18V22.375H19.25V20.5C19.25 20.3342 19.1842 20.1753 19.0669 20.0581C18.9497 19.9408 18.7908 19.875 18.625 19.875H17.1363L16.1988 18H20.5C20.9971 17.9995 21.4738 17.8018 21.8253 17.4503C22.1768 17.0988 22.3745 16.6221 22.375 16.125V5.5C22.3745 5.00287 22.1768 4.52625 21.8253 4.17472C21.4738 3.8232 20.9971 3.6255 20.5 3.625ZM5.5 4.875H20.5C20.6658 4.875 20.8247 4.94085 20.9419 5.05806C21.0592 5.17527 21.125 5.33424 21.125 5.5V14.25H4.875V5.5C4.875 5.33424 4.94085 5.17527 5.05806 5.05806C5.17527 4.94085 5.33424 4.875 5.5 4.875ZM15.7387 19.875H10.2613L11.1988 18H14.8012L15.7387 19.875ZM20.5 16.75H5.5C5.33424 16.75 5.17527 16.6842 5.05806 16.5669C4.94085 16.4497 4.875 16.2908 4.875 16.125V15.5H21.125V16.125C21.125 16.2908 21.0592 16.4497 20.9419 16.5669C20.8247 16.6842 20.6658 16.75 20.5 16.75Z" fill="white"/>
<path d="M19.875 6.4375H13V7.6875H19.875V6.4375Z" fill="white"/>
<path d="M19.875 8.9375H11.75V10.1875H19.875V8.9375Z" fill="white"/>
<path d="M18.625 11.4375H11.75V12.6875H18.625V11.4375Z" fill="white"/>
</g>
</g>
<defs>
<clipPath id="clip0_216_113">
<rect width="26" height="26" fill="white"/>
</clipPath>
<clipPath id="clip1_216_113">
<rect width="20" height="20" fill="white" transform="translate(3 3)"/>
</clipPath>
</defs>
</svg>
